<svg height="100%" width="100%" id="svg" viewBox="0 0 1440 500" xmlns="http://www.w3.org/2000/svg" class="transition duration-300 ease-in-out delay-150"><path d="M 0,500 C 0,500 0,100 0,100 C 67.41257299896944,118.96461697011337 134.82514599793888,137.92923394022674 199,137 C 263.1748540020611,136.07076605977326 324.11198900721394,115.24768120920646 393,103 C 461.88801099278606,90.75231879079354 538.7268979732052,87.08004122294744 622,90 C 705.2731020267948,92.91995877705256 794.9804190999657,102.43215389900378 854,96 C 913.0195809000343,89.56784610099622 941.3514256269323,67.19134318103745 996,67 C 1050.6485743730677,66.80865681896255 1131.613878392305,88.80247337684644 1210,98 C 1288.386121607695,107.19752662315356 1364.1930608038474,103.59876331157679 1440,100 C 1440,100 1440,500 1440,500 Z" stroke="none" stroke-width="0" fill="#00d08444" class="transition-all duration-300 ease-in-out delay-150"></path><path d="M 0,500 C 0,500 0,200 0,200 C 60.12916523531432,203.33562349708006 120.25833047062864,206.6712469941601 187,209 C 253.74166952937136,211.3287530058399 327.09584335279976,212.6506355204397 402,206 C 476.90415664720024,199.3493644795603 553.3582961181725,184.72621092408107 632,191 C 710.6417038818275,197.27378907591893 791.4709721745104,224.444520783236 855,224 C 918.5290278254896,223.555479216764 964.7578151837856,195.49570594297495 1029,183 C 1093.2421848162144,170.50429405702505 1175.497767090347,173.57265544486432 1247,179 C 1318.502232909653,184.42734455513568 1379.2511164548264,192.21367227756784 1440,200 C 1440,200 1440,500 1440,500 Z" stroke="none" stroke-width="0" fill="#00d08466" class="transition-all duration-300 ease-in-out delay-150"></path><path d="M 0,500 C 0,500 0,300 0,300 C 82.07488835451733,301.4634146341464 164.14977670903465,302.9268292682927 226,307 C 287.85022329096535,311.0731707317073 329.47578151837865,317.7560975609756 392,327 C 454.52421848162135,336.2439024390244 537.947097217451,348.04878048780483 616,334 C 694.052902782549,319.95121951219517 766.7358296118173,280.04878048780495 835,264 C 903.2641703881827,247.95121951219508 967.10958433528,255.7560975609756 1042,273 C 1116.89041566472,290.2439024390244 1202.825833047063,316.9268292682927 1271,323 C 1339.174166952937,329.0731707317073 1389.5870834764685,314.5365853658536 1440,300 C 1440,300 1440,500 1440,500 Z" stroke="none" stroke-width="0" fill="#00d08488" class="transition-all duration-300 ease-in-out delay-150"></path><path d="M 0,500 C 0,500 0,400 0,400 C 60.32566128478189,410.99141188594984 120.65132256956377,421.9828237718997 198,415 C 275.3486774304362,408.0171762281003 369.7203710065269,383.0601167983511 443,384 C 516.2796289934731,384.9398832016489 568.4671934043284,411.77670903469595 632,415 C 695.5328065956716,418.22329096530405 770.4108553761595,397.83304706286503 842,387 C 913.5891446238405,376.16695293713497 981.889385091034,374.891102713844 1051,375 C 1120.110614908966,375.108897286156 1190.0316042597044,376.6025420817588 1255,381 C 1319.9683957402956,385.3974579182412 1379.984197870148,392.69872895912056 1440,400 C 1440,400 1440,500 1440,500 Z" stroke="none" stroke-width="0" fill="#00d084ff" class="transition-all duration-300 ease-in-out delay-150"></path></svg>